<?xml version="1.0" encoding="UTF-8" standalone="no"?>
<!DOCTYPE svg PUBLIC "-//W3C//DTD SVG 1.1//EN" "http://www.w3.org/Graphics/SVG/1.1/DTD/svg11.dtd">
<svg width="100%" height="100%" viewBox="0 0 332 332" version="1.1" xmlns="http://www.w3.org/2000/svg" xmlns:xlink="http://www.w3.org/1999/xlink" xml:space="preserve" xmlns:serif="http://www.serif.com/" style="fill-rule:evenodd;clip-rule:evenodd;stroke-linejoin:round;stroke-miterlimit:2;">
    <g transform="matrix(1,0,0,1,-1968.48,-244.092)">
        <g transform="matrix(1,0,0,1,-0.229744,434.355)">
            <g transform="matrix(1.25898,0,0,1.25898,1632.75,-966.64)">
                <path d="M530.207,673.749L530.207,822.941C530.207,854.444 504.63,880.021 473.126,880.021L323.934,880.021C292.431,880.021 266.854,854.444 266.854,822.941L266.854,673.749C266.854,642.245 292.431,616.668 323.934,616.668L473.126,616.668C504.63,616.668 530.207,642.245 530.207,673.749Z" style="fill:url(#_Linear1);"/>
            </g>
            <g transform="matrix(1.53942,0,0,1.53942,1546.54,-529.779)">
                <path d="M453.387,401.072C446.773,401.072 440.986,400.108 436.026,398.178C431.065,396.249 426.897,393.356 423.521,389.498C420.145,385.64 417.596,380.886 415.874,375.236C414.151,369.587 413.29,363.042 413.29,355.601L413.289,307.65L413.289,291.115L413.271,252.54C413.271,250.749 413.994,249.405 415.441,248.509C416.888,247.614 419.058,247.166 421.952,247.166C424.983,247.166 427.257,247.614 428.772,248.509C430.288,249.405 431.046,250.749 431.046,252.54L431.064,291.115L457.106,291.115C459.173,291.115 460.654,291.701 461.55,292.872C462.446,294.043 462.893,296.213 462.893,299.383C462.893,302.414 462.446,304.55 461.55,305.79C460.654,307.03 459.173,307.65 457.106,307.65L431.064,307.65L431.065,355.601C431.065,360.562 431.616,364.902 432.719,368.622C433.821,372.343 435.474,375.443 437.679,377.923C439.884,380.404 442.605,382.298 445.843,383.607C449.081,384.916 452.836,385.571 457.108,385.571C459.037,385.571 460.483,386.363 461.448,387.948C462.413,389.532 462.791,391.323 462.585,393.321C462.378,395.319 461.517,397.111 460.001,398.695C458.486,400.28 456.281,401.072 453.387,401.072Z" style="fill:white;fill-rule:nonzero;"/>
            </g>
            <g transform="matrix(1.53942,0,0,1.09983,1489,-353.47)">
                <path d="M431.046,357.123L413.338,357.123L413.271,252.54C413.271,250.749 413.994,249.405 415.441,248.509C416.888,247.614 419.058,247.166 421.952,247.166C424.983,247.166 427.257,247.614 428.772,248.509C430.288,249.405 431.046,250.749 431.046,252.54L431.046,357.123ZM413.338,357.123L431.046,357.123L431.064,395.698C431.064,397.49 430.34,398.833 428.894,399.729C427.447,400.624 425.277,401.072 422.383,401.072C419.352,401.072 417.078,400.624 415.562,399.729C414.047,398.833 413.289,397.49 413.289,395.698L413.338,357.123Z" style="fill:white;"/>
            </g>
            <g transform="matrix(1.53942,0,0,1.53942,1373.66,-529.779)">
                <path d="M431.046,357.123L413.338,357.123L413.271,275.923C413.271,274.131 413.994,272.788 415.441,271.892C416.888,270.997 419.058,270.549 421.952,270.549C424.983,270.549 427.257,270.997 428.772,271.892C430.288,272.788 431.046,274.131 431.046,275.923L431.046,357.123ZM413.338,357.123L431.046,357.123L431.064,395.698C431.064,397.49 430.34,398.833 428.894,399.729C427.447,400.624 425.277,401.072 422.383,401.072C419.352,401.072 417.078,400.624 415.562,399.729C414.047,398.833 413.289,397.49 413.289,395.698L413.338,357.123Z" style="fill:white;"/>
            </g>
            <g transform="matrix(1.53942,0,0,1.53942,1431.48,-529.779)">
                <path d="M431.046,357.123L413.338,357.123L413.079,329.493C413.079,327.702 413.802,326.358 415.249,325.463C416.696,324.567 418.866,324.119 421.76,324.119C424.791,324.119 427.064,324.567 428.58,325.463C430.096,326.358 430.854,327.702 430.854,329.493L431.046,357.123ZM413.338,357.123L431.046,357.123L431.064,395.698C431.064,397.49 430.34,398.833 428.894,399.729C427.447,400.624 425.277,401.072 422.383,401.072C419.352,401.072 417.078,400.624 415.562,399.729C414.047,398.833 413.289,397.49 413.289,395.698L413.338,357.123Z" style="fill:white;"/>
            </g>
        </g>
    </g>
    <defs>
        <linearGradient id="_Linear1" x1="0" y1="0" x2="1" y2="0" gradientUnits="userSpaceOnUse" gradientTransform="matrix(263.353,263.353,-263.353,263.353,266.854,616.668)"><stop offset="0" style="stop-color:rgb(13,74,163);stop-opacity:1"/><stop offset="0.49" style="stop-color:rgb(63,103,241);stop-opacity:1"/><stop offset="1" style="stop-color:rgb(118,93,246);stop-opacity:1"/></linearGradient>
    </defs>
</svg>
